<mxfile host="app.diagrams.net" modified="2024-07-12T17:36:12.306Z" agent="Mozilla/5.0 (Windows NT 10.0; Win64; x64) AppleWebKit/537.36 (KHTML, like Gecko) Chrome/126.0.0.0 Safari/537.36" etag="7tLlTIV101oJyXkdXsVt" version="24.6.5" type="device">
  <diagram name="Page-1" id="R3vK7USoOgDC18vmyPG_">
    <mxGraphModel dx="1050" dy="530" grid="1" gridSize="10" guides="1" tooltips="1" connect="1" arrows="1" fold="1" page="1" pageScale="1" pageWidth="850" pageHeight="1100" math="0" shadow="0">
      <root>
        <mxCell id="0" />
        <mxCell id="1" parent="0" />
        <mxCell id="Pon-382NquTr3tyt5XnE-1" value="&lt;font style=&quot;font-size: 24px;&quot;&gt;10&lt;/font&gt;" style="ellipse;whiteSpace=wrap;html=1;aspect=fixed;" vertex="1" parent="1">
          <mxGeometry x="110" y="40" width="60" height="60" as="geometry" />
        </mxCell>
        <mxCell id="Pon-382NquTr3tyt5XnE-2" value="&lt;font style=&quot;font-size: 24px;&quot;&gt;19&lt;/font&gt;" style="ellipse;whiteSpace=wrap;html=1;aspect=fixed;" vertex="1" parent="1">
          <mxGeometry x="250" y="100" width="60" height="60" as="geometry" />
        </mxCell>
        <mxCell id="Pon-382NquTr3tyt5XnE-3" value="&lt;font style=&quot;font-size: 24px;&quot;&gt;15&lt;/font&gt;" style="ellipse;whiteSpace=wrap;html=1;aspect=fixed;" vertex="1" parent="1">
          <mxGeometry x="100" y="180" width="60" height="60" as="geometry" />
        </mxCell>
        <mxCell id="Pon-382NquTr3tyt5XnE-4" value="&lt;font style=&quot;font-size: 24px;&quot;&gt;27&lt;/font&gt;" style="ellipse;whiteSpace=wrap;html=1;aspect=fixed;" vertex="1" parent="1">
          <mxGeometry x="425" y="50" width="60" height="60" as="geometry" />
        </mxCell>
        <mxCell id="Pon-382NquTr3tyt5XnE-5" value="&lt;font style=&quot;font-size: 24px;&quot;&gt;16&lt;/font&gt;" style="ellipse;whiteSpace=wrap;html=1;aspect=fixed;" vertex="1" parent="1">
          <mxGeometry x="80" y="350" width="60" height="60" as="geometry" />
        </mxCell>
        <mxCell id="Pon-382NquTr3tyt5XnE-6" value="&lt;font style=&quot;font-size: 24px;&quot;&gt;13&lt;/font&gt;" style="ellipse;whiteSpace=wrap;html=1;aspect=fixed;" vertex="1" parent="1">
          <mxGeometry x="290" y="340" width="60" height="60" as="geometry" />
        </mxCell>
        <mxCell id="Pon-382NquTr3tyt5XnE-7" value="&lt;font style=&quot;font-size: 24px;&quot;&gt;24&lt;/font&gt;" style="ellipse;whiteSpace=wrap;html=1;aspect=fixed;" vertex="1" parent="1">
          <mxGeometry x="380" y="230" width="60" height="60" as="geometry" />
        </mxCell>
        <mxCell id="Pon-382NquTr3tyt5XnE-8" value="&lt;font style=&quot;font-size: 24px;&quot;&gt;29&lt;/font&gt;" style="ellipse;whiteSpace=wrap;html=1;aspect=fixed;" vertex="1" parent="1">
          <mxGeometry x="190" y="460" width="60" height="60" as="geometry" />
        </mxCell>
        <mxCell id="Pon-382NquTr3tyt5XnE-9" value="&lt;font style=&quot;font-size: 24px;&quot;&gt;42&lt;/font&gt;" style="ellipse;whiteSpace=wrap;html=1;aspect=fixed;" vertex="1" parent="1">
          <mxGeometry x="395" y="470" width="60" height="60" as="geometry" />
        </mxCell>
        <mxCell id="Pon-382NquTr3tyt5XnE-10" value="&lt;font style=&quot;font-size: 24px;&quot;&gt;33&lt;/font&gt;" style="ellipse;whiteSpace=wrap;html=1;aspect=fixed;" vertex="1" parent="1">
          <mxGeometry x="470" y="350" width="60" height="60" as="geometry" />
        </mxCell>
        <mxCell id="Pon-382NquTr3tyt5XnE-11" value="&lt;font style=&quot;font-size: 24px;&quot;&gt;51&lt;/font&gt;" style="ellipse;whiteSpace=wrap;html=1;aspect=fixed;" vertex="1" parent="1">
          <mxGeometry x="580" y="90" width="60" height="60" as="geometry" />
        </mxCell>
        <mxCell id="Pon-382NquTr3tyt5XnE-12" value="&lt;font style=&quot;font-size: 24px;&quot;&gt;55&lt;/font&gt;" style="ellipse;whiteSpace=wrap;html=1;aspect=fixed;" vertex="1" parent="1">
          <mxGeometry x="710" y="30" width="60" height="60" as="geometry" />
        </mxCell>
        <mxCell id="Pon-382NquTr3tyt5XnE-13" value="&lt;font style=&quot;font-size: 24px;&quot;&gt;58&lt;/font&gt;" style="ellipse;whiteSpace=wrap;html=1;aspect=fixed;" vertex="1" parent="1">
          <mxGeometry x="680" y="190" width="60" height="60" as="geometry" />
        </mxCell>
        <mxCell id="Pon-382NquTr3tyt5XnE-14" value="&lt;font style=&quot;font-size: 24px;&quot;&gt;60&lt;/font&gt;" style="ellipse;whiteSpace=wrap;html=1;aspect=fixed;" vertex="1" parent="1">
          <mxGeometry x="780" y="130" width="60" height="60" as="geometry" />
        </mxCell>
        <mxCell id="Pon-382NquTr3tyt5XnE-15" value="&lt;font style=&quot;font-size: 24px;&quot;&gt;93&lt;/font&gt;" style="ellipse;whiteSpace=wrap;html=1;aspect=fixed;" vertex="1" parent="1">
          <mxGeometry x="600" y="340" width="60" height="60" as="geometry" />
        </mxCell>
        <mxCell id="Pon-382NquTr3tyt5XnE-16" value="&lt;font style=&quot;font-size: 24px;&quot;&gt;24&lt;/font&gt;" style="ellipse;whiteSpace=wrap;html=1;aspect=fixed;" vertex="1" parent="1">
          <mxGeometry x="730" y="350" width="60" height="60" as="geometry" />
        </mxCell>
        <mxCell id="Pon-382NquTr3tyt5XnE-17" value="&lt;font style=&quot;font-size: 24px;&quot;&gt;95&lt;/font&gt;" style="ellipse;whiteSpace=wrap;html=1;aspect=fixed;" vertex="1" parent="1">
          <mxGeometry x="640" y="450" width="60" height="60" as="geometry" />
        </mxCell>
        <mxCell id="Pon-382NquTr3tyt5XnE-18" value="" style="endArrow=none;html=1;rounded=0;entryX=0.5;entryY=1;entryDx=0;entryDy=0;exitX=0.5;exitY=0;exitDx=0;exitDy=0;" edge="1" parent="1" source="Pon-382NquTr3tyt5XnE-3" target="Pon-382NquTr3tyt5XnE-1">
          <mxGeometry width="50" height="50" relative="1" as="geometry">
            <mxPoint x="400" y="300" as="sourcePoint" />
            <mxPoint x="450" y="250" as="targetPoint" />
          </mxGeometry>
        </mxCell>
        <mxCell id="Pon-382NquTr3tyt5XnE-19" value="" style="endArrow=none;html=1;rounded=0;exitX=0;exitY=0;exitDx=0;exitDy=0;" edge="1" parent="1" source="Pon-382NquTr3tyt5XnE-2" target="Pon-382NquTr3tyt5XnE-1">
          <mxGeometry width="50" height="50" relative="1" as="geometry">
            <mxPoint x="140" y="190" as="sourcePoint" />
            <mxPoint x="155" y="100" as="targetPoint" />
          </mxGeometry>
        </mxCell>
        <mxCell id="Pon-382NquTr3tyt5XnE-20" value="" style="endArrow=none;html=1;rounded=0;exitX=1;exitY=0.5;exitDx=0;exitDy=0;entryX=0;entryY=1;entryDx=0;entryDy=0;" edge="1" parent="1" source="Pon-382NquTr3tyt5XnE-3" target="Pon-382NquTr3tyt5XnE-2">
          <mxGeometry width="50" height="50" relative="1" as="geometry">
            <mxPoint x="400" y="300" as="sourcePoint" />
            <mxPoint x="450" y="250" as="targetPoint" />
          </mxGeometry>
        </mxCell>
        <mxCell id="Pon-382NquTr3tyt5XnE-21" value="" style="endArrow=none;html=1;rounded=0;exitX=1;exitY=0;exitDx=0;exitDy=0;entryX=0;entryY=0.5;entryDx=0;entryDy=0;" edge="1" parent="1" source="Pon-382NquTr3tyt5XnE-2" target="Pon-382NquTr3tyt5XnE-4">
          <mxGeometry width="50" height="50" relative="1" as="geometry">
            <mxPoint x="310" y="119" as="sourcePoint" />
            <mxPoint x="409" y="60" as="targetPoint" />
          </mxGeometry>
        </mxCell>
        <mxCell id="Pon-382NquTr3tyt5XnE-22" value="" style="endArrow=none;html=1;rounded=0;exitX=0.5;exitY=1;exitDx=0;exitDy=0;entryX=0.5;entryY=0;entryDx=0;entryDy=0;" edge="1" parent="1" source="Pon-382NquTr3tyt5XnE-3" target="Pon-382NquTr3tyt5XnE-5">
          <mxGeometry width="50" height="50" relative="1" as="geometry">
            <mxPoint x="170" y="220" as="sourcePoint" />
            <mxPoint x="269" y="161" as="targetPoint" />
          </mxGeometry>
        </mxCell>
        <mxCell id="Pon-382NquTr3tyt5XnE-23" value="" style="endArrow=none;html=1;rounded=0;exitX=1;exitY=1;exitDx=0;exitDy=0;entryX=0.5;entryY=0;entryDx=0;entryDy=0;" edge="1" parent="1" source="Pon-382NquTr3tyt5XnE-3" target="Pon-382NquTr3tyt5XnE-6">
          <mxGeometry width="50" height="50" relative="1" as="geometry">
            <mxPoint x="140" y="250" as="sourcePoint" />
            <mxPoint x="120" y="360" as="targetPoint" />
          </mxGeometry>
        </mxCell>
        <mxCell id="Pon-382NquTr3tyt5XnE-24" value="" style="endArrow=none;html=1;rounded=0;exitX=1;exitY=1;exitDx=0;exitDy=0;entryX=0;entryY=0;entryDx=0;entryDy=0;" edge="1" parent="1" source="Pon-382NquTr3tyt5XnE-2" target="Pon-382NquTr3tyt5XnE-7">
          <mxGeometry width="50" height="50" relative="1" as="geometry">
            <mxPoint x="161" y="241" as="sourcePoint" />
            <mxPoint x="330" y="350" as="targetPoint" />
          </mxGeometry>
        </mxCell>
        <mxCell id="Pon-382NquTr3tyt5XnE-25" value="" style="endArrow=none;html=1;rounded=0;exitX=1;exitY=0;exitDx=0;exitDy=0;entryX=0;entryY=1;entryDx=0;entryDy=0;" edge="1" parent="1" source="Pon-382NquTr3tyt5XnE-6" target="Pon-382NquTr3tyt5XnE-7">
          <mxGeometry width="50" height="50" relative="1" as="geometry">
            <mxPoint x="311" y="161" as="sourcePoint" />
            <mxPoint x="399" y="249" as="targetPoint" />
          </mxGeometry>
        </mxCell>
        <mxCell id="Pon-382NquTr3tyt5XnE-26" value="" style="endArrow=none;html=1;rounded=0;exitX=1;exitY=1;exitDx=0;exitDy=0;entryX=0;entryY=0;entryDx=0;entryDy=0;" edge="1" parent="1" source="Pon-382NquTr3tyt5XnE-5" target="Pon-382NquTr3tyt5XnE-8">
          <mxGeometry width="50" height="50" relative="1" as="geometry">
            <mxPoint x="351" y="359" as="sourcePoint" />
            <mxPoint x="399" y="291" as="targetPoint" />
          </mxGeometry>
        </mxCell>
        <mxCell id="Pon-382NquTr3tyt5XnE-27" value="" style="endArrow=none;html=1;rounded=0;exitX=0;exitY=1;exitDx=0;exitDy=0;entryX=1;entryY=0;entryDx=0;entryDy=0;" edge="1" parent="1" source="Pon-382NquTr3tyt5XnE-6" target="Pon-382NquTr3tyt5XnE-8">
          <mxGeometry width="50" height="50" relative="1" as="geometry">
            <mxPoint x="141" y="411" as="sourcePoint" />
            <mxPoint x="209" y="479" as="targetPoint" />
          </mxGeometry>
        </mxCell>
        <mxCell id="Pon-382NquTr3tyt5XnE-28" value="" style="endArrow=none;html=1;rounded=0;exitX=0;exitY=0.5;exitDx=0;exitDy=0;entryX=1;entryY=0.5;entryDx=0;entryDy=0;" edge="1" parent="1" source="Pon-382NquTr3tyt5XnE-9" target="Pon-382NquTr3tyt5XnE-8">
          <mxGeometry width="50" height="50" relative="1" as="geometry">
            <mxPoint x="309" y="401" as="sourcePoint" />
            <mxPoint x="251" y="479" as="targetPoint" />
          </mxGeometry>
        </mxCell>
        <mxCell id="Pon-382NquTr3tyt5XnE-29" value="" style="endArrow=none;html=1;rounded=0;exitX=0;exitY=0;exitDx=0;exitDy=0;entryX=1;entryY=1;entryDx=0;entryDy=0;" edge="1" parent="1" source="Pon-382NquTr3tyt5XnE-9" target="Pon-382NquTr3tyt5XnE-6">
          <mxGeometry width="50" height="50" relative="1" as="geometry">
            <mxPoint x="405" y="510" as="sourcePoint" />
            <mxPoint x="260" y="500" as="targetPoint" />
          </mxGeometry>
        </mxCell>
        <mxCell id="Pon-382NquTr3tyt5XnE-30" value="" style="endArrow=none;html=1;rounded=0;exitX=1;exitY=0;exitDx=0;exitDy=0;entryX=0;entryY=1;entryDx=0;entryDy=0;" edge="1" parent="1" source="Pon-382NquTr3tyt5XnE-9" target="Pon-382NquTr3tyt5XnE-10">
          <mxGeometry width="50" height="50" relative="1" as="geometry">
            <mxPoint x="414" y="489" as="sourcePoint" />
            <mxPoint x="351" y="401" as="targetPoint" />
          </mxGeometry>
        </mxCell>
        <mxCell id="Pon-382NquTr3tyt5XnE-31" value="" style="endArrow=none;html=1;rounded=0;exitX=0.5;exitY=0;exitDx=0;exitDy=0;entryX=1;entryY=1;entryDx=0;entryDy=0;" edge="1" parent="1" source="Pon-382NquTr3tyt5XnE-10" target="Pon-382NquTr3tyt5XnE-7">
          <mxGeometry width="50" height="50" relative="1" as="geometry">
            <mxPoint x="456" y="489" as="sourcePoint" />
            <mxPoint x="489" y="411" as="targetPoint" />
          </mxGeometry>
        </mxCell>
        <mxCell id="Pon-382NquTr3tyt5XnE-32" value="" style="endArrow=none;html=1;rounded=0;exitX=0;exitY=0;exitDx=0;exitDy=0;entryX=1;entryY=1;entryDx=0;entryDy=0;" edge="1" parent="1" source="Pon-382NquTr3tyt5XnE-13" target="Pon-382NquTr3tyt5XnE-11">
          <mxGeometry width="50" height="50" relative="1" as="geometry">
            <mxPoint x="510" y="360" as="sourcePoint" />
            <mxPoint x="441" y="291" as="targetPoint" />
          </mxGeometry>
        </mxCell>
        <mxCell id="Pon-382NquTr3tyt5XnE-33" value="" style="endArrow=none;html=1;rounded=0;exitX=0;exitY=0.5;exitDx=0;exitDy=0;entryX=1;entryY=0;entryDx=0;entryDy=0;" edge="1" parent="1" source="Pon-382NquTr3tyt5XnE-12" target="Pon-382NquTr3tyt5XnE-11">
          <mxGeometry width="50" height="50" relative="1" as="geometry">
            <mxPoint x="699" y="209" as="sourcePoint" />
            <mxPoint x="620" y="160" as="targetPoint" />
          </mxGeometry>
        </mxCell>
        <mxCell id="Pon-382NquTr3tyt5XnE-34" value="" style="endArrow=none;html=1;rounded=0;exitX=0.5;exitY=0;exitDx=0;exitDy=0;entryX=0.5;entryY=1;entryDx=0;entryDy=0;" edge="1" parent="1" source="Pon-382NquTr3tyt5XnE-13" target="Pon-382NquTr3tyt5XnE-12">
          <mxGeometry width="50" height="50" relative="1" as="geometry">
            <mxPoint x="699" y="209" as="sourcePoint" />
            <mxPoint x="641" y="151" as="targetPoint" />
          </mxGeometry>
        </mxCell>
        <mxCell id="Pon-382NquTr3tyt5XnE-35" value="" style="endArrow=none;html=1;rounded=0;exitX=1;exitY=0;exitDx=0;exitDy=0;entryX=0;entryY=1;entryDx=0;entryDy=0;" edge="1" parent="1" source="Pon-382NquTr3tyt5XnE-13" target="Pon-382NquTr3tyt5XnE-14">
          <mxGeometry width="50" height="50" relative="1" as="geometry">
            <mxPoint x="720" y="200" as="sourcePoint" />
            <mxPoint x="750" y="100" as="targetPoint" />
          </mxGeometry>
        </mxCell>
        <mxCell id="Pon-382NquTr3tyt5XnE-36" value="" style="endArrow=none;html=1;rounded=0;exitX=1;exitY=0.5;exitDx=0;exitDy=0;entryX=0;entryY=0.5;entryDx=0;entryDy=0;" edge="1" parent="1" source="Pon-382NquTr3tyt5XnE-15" target="Pon-382NquTr3tyt5XnE-16">
          <mxGeometry width="50" height="50" relative="1" as="geometry">
            <mxPoint x="670" y="358" as="sourcePoint" />
            <mxPoint x="728" y="340" as="targetPoint" />
          </mxGeometry>
        </mxCell>
        <mxCell id="Pon-382NquTr3tyt5XnE-37" value="" style="endArrow=none;html=1;rounded=0;exitX=0.5;exitY=1;exitDx=0;exitDy=0;entryX=0;entryY=0;entryDx=0;entryDy=0;" edge="1" parent="1" source="Pon-382NquTr3tyt5XnE-15" target="Pon-382NquTr3tyt5XnE-17">
          <mxGeometry width="50" height="50" relative="1" as="geometry">
            <mxPoint x="670" y="380" as="sourcePoint" />
            <mxPoint x="740" y="390" as="targetPoint" />
          </mxGeometry>
        </mxCell>
        <mxCell id="Pon-382NquTr3tyt5XnE-38" value="head" style="text;html=1;align=center;verticalAlign=middle;resizable=0;points=[];autosize=1;strokeColor=none;fillColor=none;" vertex="1" parent="1">
          <mxGeometry x="75" y="30" width="50" height="30" as="geometry" />
        </mxCell>
        <mxCell id="Pon-382NquTr3tyt5XnE-39" value="1" style="text;html=1;align=center;verticalAlign=middle;resizable=0;points=[];autosize=1;strokeColor=none;fillColor=none;" vertex="1" parent="1">
          <mxGeometry x="85" y="170" width="30" height="30" as="geometry" />
        </mxCell>
        <mxCell id="Pon-382NquTr3tyt5XnE-40" value="3" style="text;html=1;align=center;verticalAlign=middle;resizable=0;points=[];autosize=1;strokeColor=none;fillColor=none;" vertex="1" parent="1">
          <mxGeometry x="75" y="330" width="30" height="30" as="geometry" />
        </mxCell>
        <mxCell id="Pon-382NquTr3tyt5XnE-41" value="2" style="text;html=1;align=center;verticalAlign=middle;resizable=0;points=[];autosize=1;strokeColor=none;fillColor=none;" vertex="1" parent="1">
          <mxGeometry x="265" y="70" width="30" height="30" as="geometry" />
        </mxCell>
        <mxCell id="Pon-382NquTr3tyt5XnE-42" value="6" style="text;html=1;align=center;verticalAlign=middle;resizable=0;points=[];autosize=1;strokeColor=none;fillColor=none;" vertex="1" parent="1">
          <mxGeometry x="450" y="20" width="30" height="30" as="geometry" />
        </mxCell>
        <mxCell id="Pon-382NquTr3tyt5XnE-43" value="5" style="text;html=1;align=center;verticalAlign=middle;resizable=0;points=[];autosize=1;strokeColor=none;fillColor=none;" vertex="1" parent="1">
          <mxGeometry x="410" y="205" width="30" height="30" as="geometry" />
        </mxCell>
        <mxCell id="Pon-382NquTr3tyt5XnE-44" value="4" style="text;html=1;align=center;verticalAlign=middle;resizable=0;points=[];autosize=1;strokeColor=none;fillColor=none;" vertex="1" parent="1">
          <mxGeometry x="265" y="350" width="30" height="30" as="geometry" />
        </mxCell>
        <mxCell id="Pon-382NquTr3tyt5XnE-45" value="7" style="text;html=1;align=center;verticalAlign=middle;resizable=0;points=[];autosize=1;strokeColor=none;fillColor=none;" vertex="1" parent="1">
          <mxGeometry x="160" y="490" width="30" height="30" as="geometry" />
        </mxCell>
        <mxCell id="Pon-382NquTr3tyt5XnE-46" value="9" style="text;html=1;align=center;verticalAlign=middle;resizable=0;points=[];autosize=1;strokeColor=none;fillColor=none;" vertex="1" parent="1">
          <mxGeometry x="450" y="490" width="30" height="30" as="geometry" />
        </mxCell>
        <mxCell id="Pon-382NquTr3tyt5XnE-47" value="8" style="text;html=1;align=center;verticalAlign=middle;resizable=0;points=[];autosize=1;strokeColor=none;fillColor=none;" vertex="1" parent="1">
          <mxGeometry x="510" y="330" width="30" height="30" as="geometry" />
        </mxCell>
        <mxCell id="Pon-382NquTr3tyt5XnE-48" value="head11" style="text;html=1;align=center;verticalAlign=middle;resizable=0;points=[];autosize=1;strokeColor=none;fillColor=none;" vertex="1" parent="1">
          <mxGeometry x="570" y="65" width="60" height="30" as="geometry" />
        </mxCell>
        <mxCell id="Pon-382NquTr3tyt5XnE-50" value="12" style="text;html=1;align=center;verticalAlign=middle;resizable=0;points=[];autosize=1;strokeColor=none;fillColor=none;" vertex="1" parent="1">
          <mxGeometry x="750" y="10" width="40" height="30" as="geometry" />
        </mxCell>
        <mxCell id="Pon-382NquTr3tyt5XnE-51" value="14" style="text;html=1;align=center;verticalAlign=middle;resizable=0;points=[];autosize=1;strokeColor=none;fillColor=none;" vertex="1" parent="1">
          <mxGeometry x="800" y="100" width="40" height="30" as="geometry" />
        </mxCell>
        <mxCell id="Pon-382NquTr3tyt5XnE-52" value="13" style="text;html=1;align=center;verticalAlign=middle;resizable=0;points=[];autosize=1;strokeColor=none;fillColor=none;" vertex="1" parent="1">
          <mxGeometry x="730" y="220" width="40" height="30" as="geometry" />
        </mxCell>
        <mxCell id="Pon-382NquTr3tyt5XnE-53" value="head21" style="text;html=1;align=center;verticalAlign=middle;resizable=0;points=[];autosize=1;strokeColor=none;fillColor=none;" vertex="1" parent="1">
          <mxGeometry x="600" y="310" width="60" height="30" as="geometry" />
        </mxCell>
        <mxCell id="Pon-382NquTr3tyt5XnE-54" value="22" style="text;html=1;align=center;verticalAlign=middle;resizable=0;points=[];autosize=1;strokeColor=none;fillColor=none;" vertex="1" parent="1">
          <mxGeometry x="740" y="320" width="40" height="30" as="geometry" />
        </mxCell>
        <mxCell id="Pon-382NquTr3tyt5XnE-55" value="23" style="text;html=1;align=center;verticalAlign=middle;resizable=0;points=[];autosize=1;strokeColor=none;fillColor=none;" vertex="1" parent="1">
          <mxGeometry x="690" y="490" width="40" height="30" as="geometry" />
        </mxCell>
      </root>
    </mxGraphModel>
  </diagram>
</mxfile>
